<?xml version="1.0" encoding="UTF-8"?>
<svg width="20px" height="20px" viewBox="0 0 20 20" version="1.1" xmlns="http://www.w3.org/2000/svg" xmlns:xlink="http://www.w3.org/1999/xlink">
    <!-- Generator: Sketch 61 (89581) - https://sketch.com -->
    <title>网格员</title>
    <desc>Created with Sketch.</desc>
    <defs>
        <linearGradient x1="50%" y1="0%" x2="50%" y2="100%" id="linearGradient-1">
            <stop stop-color="#FFD7A9" offset="0%"></stop>
            <stop stop-color="#FF9B00" offset="100%"></stop>
        </linearGradient>
        <path d="M8.4041865,7.2 C9.93751983,7.2 10.7361309,7.93472222 10.8000198,9.40416667 L10.8041865,9.6 C10.8041865,11.2 10.0041865,12 8.4041865,12 L2.4041865,12 C0.870853167,12 0.0722420556,11.2652778 0.00835316666,9.79583333 L0.0041865,9.6 C0.0041865,8 0.8041865,7.2 2.4041865,7.2 L8.4041865,7.2 Z M5.4041865,0 C7.06104075,0 8.4041865,1.34314575 8.4041865,3 C8.4041865,4.65685425 7.06104075,6 5.4041865,6 C3.74733225,6 2.4041865,4.65685425 2.4041865,3 C2.4041865,1.34314575 3.74733225,0 5.4041865,0 Z" id="path-2"></path>
        <filter x="-64.8%" y="-41.7%" width="229.6%" height="216.7%" filterUnits="objectBoundingBox" id="filter-3">
            <feOffset dx="0" dy="2" in="SourceAlpha" result="shadowOffsetOuter1"></feOffset>
            <feGaussianBlur stdDeviation="2" in="shadowOffsetOuter1" result="shadowBlurOuter1"></feGaussianBlur>
            <feColorMatrix values="0 0 0 0 0   0 0 0 0 0   0 0 0 0 0  0 0 0 0.119919143 0" type="matrix" in="shadowBlurOuter1"></feColorMatrix>
        </filter>
    </defs>
    <g id="页面-1" stroke="none" stroke-width="1" fill="none" fill-rule="evenodd">
        <g id="网格地图-网格员-列表" transform="translate(-1263.000000, -84.000000)" fill-rule="nonzero">
            <g id="功能控件" transform="translate(917.000000, 72.000000)">
                <g id="清除" transform="translate(350.000000, 14.000000)">
                    <g id="网格员">
                        <g id="成员" transform="translate(0.750000, 0.000000)">
                            <g id="形状结合">
                                <use fill="black" fill-opacity="1" filter="url(#filter-3)" xlink:href="#path-2"></use>
                                <use fill="url(#linearGradient-1)" xlink:href="#path-2"></use>
                            </g>
                        </g>
                    </g>
                </g>
            </g>
        </g>
    </g>
</svg>