<?xml version="1.0" encoding="UTF-8"?>
<svg width="30px" height="56px" viewBox="0 0 30 56" version="1.1" xmlns="http://www.w3.org/2000/svg" xmlns:xlink="http://www.w3.org/1999/xlink">
    <!-- Generator: Sketch 61 (89581) - https://sketch.com -->
    <title>-mockplus-</title>
    <desc>Created with Sketch.</desc>
    <g id="页面-1" stroke="none" stroke-width="1" fill="none" fill-rule="evenodd">
        <g id="网格地图-网格员-列表" transform="translate(-505.000000, -404.000000)">
            <g id="-mockplus-" transform="translate(505.000000, 404.000000)">
                <g id="网格地图/网格员">
                    <g id="编组-3">
                        <g id="人物-异常" transform="translate(2.454545, 13.636364)">
                            <path d="M19.9903923,11.5721271 C21.7619517,9.4968718 22.9008113,5.32105313 22.9008113,5.32105313 C22.9008113,5.32105313 24.064979,4.40996543 24.2168269,4.03034553 C24.3686749,3.62541765 24.115595,3.29641374 23.887823,3.04333386 C23.6600511,2.81556195 23.1032753,3.2964138 22.9514273,3.39764574 L21.7366437,3.37233777 L20.3953202,3.34702974 L21.7619517,3.37233777 L22.5971155,1.52485435 L22.5971155,0.765614595 L18.2947568,1.0440025 C18.2947568,1.0440025 5.43829693,0.436610689 5.26114096,0.234146751 C5.083985,0.0316828125 1.97110201,1.32239041 1.97110201,1.32239041 L1.97110201,2.73963798 L1.06001431,2.71432995 C0.731010405,2.51186602 0.351390554,2.46125002 0.351390554,2.46125007 L0.174234588,2.66371401 C-0.00292137784,2.86617795 0.04769462,3.6760337 0.174234588,4.03034553 C0.300774556,4.38465735 2.19887392,5.42228507 2.19887397,5.42228512 C2.19887402,5.42228517 3.38834957,9.5981038 4.83090511,11.3190472 C6.04568874,12.7869108 8.67771989,13.3183786 10.4492793,13.5208425 C10.3986633,13.7486145 10.3227394,14.0776184 10.1708914,14.3053903 C10.1202754,14.2547743 10.0696595,14.2041583 10.0443515,14.2041583 C9.76596355,14.0523104 9.05733979,13.9763864 9.05733974,13.9763864 L7.43762828,13.7486145 C7.43762828,13.7486145 6.60246456,13.7739224 6.07099672,14.4319302 C5.5142209,15.140554 3.0340377,19.7972245 2.78095776,20.8348522 C2.52787782,21.8724798 1.61679013,24.9094389 1.61679013,24.9094389 C1.61679013,24.909439 1.66740613,25.2384428 0.958782315,25.5168307 C0.579162411,25.8964506 0.376698526,26.4279184 0.376698526,26.5544583 C0.376698526,26.6809983 0.528546467,27.0859262 0.933474343,27.3643141 C1.36371019,27.642702 1.6420981,28.0982459 1.76863807,28.2247858 C1.92048601,28.3513258 2.40133786,28.3513258 2.47726188,28.2247858 C2.5531859,28.0982459 3.00872972,27.9463979 2.95811373,27.642702 C2.90749773,27.3390061 3.28711763,26.5291504 3.33773358,26.4785344 C3.38834957,26.4279184 5.76730078,21.416936 5.76730083,21.416936 L6.93146841,19.3669887 C6.93146841,19.3669887 7.20985632,20.4805403 7.00739244,21.442244 C6.83023647,22.4039477 6.60246456,24.9600549 7.86786413,24.9347469 C9.13326371,24.9094389 8.19686804,24.833515 8.19686804,24.8335149 L17.4849011,24.9094389 C17.4849011,24.9094389 16.6497373,21.8218639 16.5231974,21.1891641 C16.3966574,20.5564642 16.7762773,20.2021524 16.7762773,20.2021524 L18.7503007,22.2520998 C18.7503007,22.2520998 18.8262247,22.2774077 19.5854644,23.0366475 C20.3447042,23.7958872 21.02802,25.3649827 21.02802,25.3649827 C21.02802,25.3649827 20.800248,26.5797664 20.5471681,26.7569223 C20.2940882,26.9340782 20.6484001,27.0606182 20.724324,26.9846942 C20.800248,26.9087703 21.1798679,26.6050743 21.1798679,26.6050743 C21.1798679,26.6050743 22.1668796,27.9210899 22.3187276,27.9463979 C22.4705756,27.971706 22.8248874,28.1235539 22.9261193,27.9210899 L23.0273513,27.718626 C23.0273513,27.718626 24.2421349,26.9846942 24.2168269,26.6303824 C24.1915189,26.2760705 23.761283,25.6939866 23.4575872,25.5421387 C23.1538913,25.3902908 22.6730394,24.3020471 22.6477314,24.0236592 C22.6224234,23.7452713 21.4582558,20.3286924 21.4582558,20.3286924 C21.4582558,20.3286924 19.0793045,14.7862421 18.9780726,14.7356261 C18.8768407,14.7103181 17.712673,14.0016943 17.3836691,13.8751544 C17.0546652,13.7486145 15.7639576,13.8751544 15.7639576,13.8751544 C15.7639576,13.8751544 15.3084137,14.1282344 15.2071818,14.1788503 L14.9541019,13.5714585 C16.5738134,13.4196105 18.9021486,12.8375267 19.9903923,11.5721271 L19.9903923,11.5721271 Z" id="路径" fill="#FFE4BF" fill-rule="nonzero"></path>
                            <path d="M0.832242401,1.32239041 C0.832242401,1.32239041 1.94579403,5.06797324 2.17356594,5.42228512 C2.40133786,5.776597 2.83157376,4.71366136 3.00872967,4.30873343 C3.18588558,3.9038055 2.8821897,2.28409411 2.8821897,2.28409411 L0.832242401,1.32239041 L0.832242401,1.32239041 Z M24.2421349,1.49954638 C24.2421349,1.49954638 22.4452675,4.96674125 22.1668796,5.27043713 C21.8884917,5.57413301 21.6607197,4.4352734 21.5594878,4.00503755 C21.4582559,3.5748017 21.9644157,2.36001808 21.9644156,2.36001808 L24.2421349,1.49954638 Z" id="形状" fill="#000000" fill-rule="nonzero"></path>
                            <path d="M21.14664,20.4779067 C21.6527999,19.9717469 21.2557919,19.8933192 21.2557919,19.8933192 C21.2557919,19.8933192 21.4076398,20.0249965 21.2557919,19.7719165 C21.1798679,19.6453766 19.4336164,15.0899381 18.8768406,14.5837782 C18.3706808,14.1535423 17.1558972,13.7486145 16.7003533,13.7486145 C16.2448095,13.7486145 15.9917296,13.7992305 15.9917295,13.7992305 C15.9917295,13.7992305 15.2577977,14.0776184 15.2071818,14.1788503 C15.1565658,14.2800822 13.8911662,16.1528737 12.6257666,16.0516417 C11.360367,15.9504097 10.3227393,14.3053903 9.99373546,14.1788503 C9.66473155,14.0523103 8.88018382,13.9004624 8.72833588,13.9004624 C8.55117992,13.9004624 7.03270041,13.4702265 6.40000062,14.1029263 C5.64076087,14.6090862 2.95811373,20.0503045 2.85688173,20.3793084 C2.85688173,20.3793084 2.67972576,20.5619302 2.85688173,20.764394 C3.05934567,20.966858 3.83816515,21.6880417 5.44321544,22.1435856 L5.66606884,21.7965559 L7.13393235,20.1515364 L7.56416825,20.2274604 L16.5738134,20.2274604 L18.4185651,21.9547593 L18.4719128,22.0496358 C18.4719128,22.0496358 19.7800085,21.8445383 21.14664,20.4779067 Z" id="路径" fill="#DB3030" fill-rule="nonzero"></path>
                            <path d="M12.2774929,40.0281624 C16.4196286,40.0281624 19.7774929,38.6850167 19.7774929,37.0281624 C19.7774929,35.3713082 16.4196286,34.0281624 12.2774929,34.0281624 C8.13535732,34.0281624 4.77749294,35.3713082 4.77749294,37.0281624 C4.77749294,38.6850167 8.13535732,40.0281624 12.2774929,40.0281624 Z" id="路径" fill-opacity="0.300671984" fill="#909090"></path>
                            <path d="M8.22217601,36.9951042 C8.22217601,37.8235313 10.0804229,38.4951042 12.3726867,38.4951042 C14.6649504,38.4951042 16.5231974,37.8235313 16.5231974,36.9951042 C16.5231974,36.1666771 14.6649504,35.4951042 12.3726867,35.4951042 C10.0804229,35.4951042 8.22217601,36.1666771 8.22217601,36.9951042 L8.22217601,36.9951042 Z" id="路径" fill-opacity="0.797175481" fill="#909090"></path>
                            <path d="M11.436291,34.6277078 C11.8665268,34.6277078 11.8665268,34.6277078 11.8918349,35.4418643 C11.8918349,35.7292136 11.9424509,36.016563 11.9677588,36.3039124 C11.9930668,36.6391534 11.9171428,36.8307196 11.7399869,36.8786111 C11.512215,36.9265026 11.2591351,36.9265026 11.0313631,36.8786111 C10.7782832,36.8307196 10.7276672,36.5912617 10.8288992,36.1602377 C10.8795152,35.9686715 10.9554392,35.7292137 10.9807471,35.5376474 C11.0060551,35.4418643 11.0060551,35.2981896 11.0060551,35.2024065 C11.0060551,34.6277078 11.0060551,34.6277078 11.309751,34.6277078 L11.436291,34.6277078 L11.436291,34.6277078 Z M12.5245347,36.0644546 C12.5498426,35.6813221 12.5751507,35.3460811 12.5751507,34.9629488 C12.5751507,34.7234909 12.6257667,34.6277078 12.7523066,34.6277078 L13.2584664,34.6277078 C13.4103144,34.6277078 13.5368544,34.8671656 13.5115463,35.1066234 C13.4862384,35.5855391 13.5874703,36.0165631 13.7140103,36.3996955 C13.8405502,36.782828 13.7646263,37.0222858 13.5368544,37.1180689 C13.3850064,37.1659604 12.9547706,37.0222857 12.7016906,36.9743942 C12.6257667,36.9743942 12.5751507,36.8786111 12.5245347,36.782828 C12.5245347,36.7349365 12.4992267,36.782828 12.5498426,36.9265027 C12.7016906,37.0222858 12.4486107,36.9743942 12.5245347,36.0644546 Z" id="形状" fill="#000000" fill-rule="nonzero"></path>
                            <path d="M17.9404449,23.0366475 C17.9404449,22.1002518 17.9404449,21.265088 17.687365,20.3540003 C17.636749,20.1768444 17.560825,20.0756124 17.4595931,19.9996885 L17.5861331,19.9996885 L17.5861331,18.202821 L17.5355171,18.202821 L17.5355171,15.06463 C17.5355171,13.5967665 17.2065132,13.6473825 16.0170376,13.7233065 L16.0170376,18.0509731 L15.9664216,18.0509731 L15.9664216,18.6330569 C15.9664216,18.5571329 15.9664216,18.4812089 15.9411136,18.405285 L8.75364386,18.405285 C8.72833588,18.7595969 8.65241191,19.0632928 8.67771989,19.3922966 C8.67771989,19.5188366 8.67771989,19.6200686 8.65241191,19.6959926 L8.62710389,18.5571329 L8.62710389,14.6090862 C8.62710389,14.2800822 8.39933198,13.7992304 8.01971207,13.7992305 C7.6147842,13.7992305 7.10862438,13.9257704 7.08331641,14.6343942 C7.05800843,15.8744858 7.08331641,17.0892694 7.08331641,18.253437 L7.05800838,18.253437 L7.05800838,20.1262284 C6.98208441,20.2274604 6.95677644,20.3540003 6.90616044,20.4805403 C6.77962047,21.36632 6.67838853,22.0749438 6.62777253,22.9354155 C6.60246456,23.2897274 6.6530805,23.5681153 6.6530805,23.7705793 C6.80492844,25.5927547 7.10862438,26.4279184 7.51355225,27.9210899 C7.58947623,28.3007098 7.69070822,28.5537897 7.76663219,28.8574856 C8.22217607,30.6290451 10.2974314,34.7795557 10.7023592,34.8807877 C10.7782832,34.9060957 10.9554392,34.9567117 11.0819791,34.9567117 C11.385675,34.9314037 12.0689908,35.1844836 11.9424508,33.7166201 C11.8159108,32.2993725 11.7399869,31.7932127 11.6387549,29.9710373 C11.613447,29.5408014 11.613447,29.0599496 11.8665268,29.0346416 C12.1702227,29.0093336 12.2208387,28.9840256 12.1955308,28.9840256 L12.5245347,28.9840256 C12.9800785,28.9587176 13.2078504,29.4142615 13.1066184,29.8951133 C12.6510746,31.8185207 12.6004586,32.7802244 12.4992267,34.2987039 C12.4233027,35.4375635 13.1825425,35.2097916 13.1825425,35.2097916 L13.6633943,35.1338676 L13.7646263,35.0326357 C14.2454781,34.1468559 15.8651896,31.3123609 16.4978894,29.3636455 C16.6244294,28.9840256 16.6244294,29.0093336 16.6244294,28.9840256 C16.7509693,28.5284817 17.0040493,28.2247858 17.1812052,27.769242 C17.3836691,27.2124662 17.5102091,26.8075383 17.611441,26.4026104 C17.813905,25.6180627 17.9404449,24.8082069 17.9404449,23.9730432 L17.9404449,23.0366475 L17.9404449,23.0366475 Z M16.2195015,19.7213006 L16.2195015,18.304053 L17.3330531,18.430593 L17.3330531,19.7719165 L16.2448095,19.7719165 C16.2448095,19.7466086 16.2195015,19.7213006 16.2195015,19.7213006 Z M8.37402395,18.6077489 L8.39933198,19.8731485 C8.32340801,19.8984565 8.19686804,19.8984565 8.07032807,19.8984565 C7.91848013,19.8731485 7.74132417,19.9490725 7.56416825,19.9237645 C7.46293631,19.8984565 7.38701229,19.8984565 7.31108832,19.9237645 L7.31108832,18.5065169 L8.37402395,18.6077489 L8.37402395,18.6077489 Z" id="形状" fill="#FF462A" fill-rule="nonzero"></path>
                            <path d="M12.4992267,23.4415754 C13.7393183,23.4415754 14.9541019,23.4668833 16.1941935,23.4415754 C16.7003533,23.4415754 16.8268933,23.6440393 16.7509693,24.1501991 C16.5991213,25.5168307 15.7133416,26.6809983 14.34671,26.8328463 C13.0560025,26.9846942 11.7652949,26.9846942 10.4998953,26.8328463 C9.20918768,26.6809984 8.42463995,25.7192947 8.17156007,24.3273551 C8.01971213,23.5681153 8.0956361,23.4668833 8.80425985,23.4668833 C10.0443515,23.4415754 11.2844431,23.4415754 12.4992267,23.4415754 Z" id="路径" fill="#FF8F8F" fill-rule="nonzero"></path>
                            <path d="M5.39494087,22.2248611 C4.18015724,22.2248611 2.85688173,20.7618816 2.78095776,20.7032375 C2.73034176,20.6445934 2.73034176,20.5566274 2.78095776,20.4979834 C2.83157376,20.4393393 2.90749773,20.4393393 2.95811373,20.4979834 C2.9834217,20.5273054 4.35731321,22.0196069 5.47086484,21.9609629 C5.54678881,21.9609629 5.59740481,22.0196069 5.59740481,22.107573 C5.59740481,22.1955391 5.54678881,22.2541832 5.47086484,22.2541832 C5.47086484,22.2248612 5.44555687,22.2248612 5.39494087,22.2248611 Z M18.3771805,22.0262974 C18.3518725,21.9383314 18.4024885,21.8796873 18.4531045,21.8503653 C21.1610596,20.9707044 21.2051759,19.9701868 21.2051759,19.9408648 C21.2051759,19.8528987 21.2810998,19.7942547 21.3570239,19.8235767 C21.4329478,19.8235767 21.4835638,19.9115427 21.4582558,19.9995089 C21.4582558,20.058153 21.4141395,21.2052807 18.5037205,22.1435856 C18.4531045,22.1435856 18.4024885,22.1142636 18.3771805,22.0262974 Z" id="形状" fill="#FFFFFF" fill-rule="nonzero"></path>
                            <path d="M9.27217841,7.14613976 C8.73342538,7.2911375 8.32451742,7.36363636 8.04545455,7.36363636 C7.77867187,7.36363636 7.3688115,7.2911375 6.81587342,7.14613976 C6.65812904,7.14613976 6.54545455,6.83945417 6.54545455,6.50488809 C6.54545455,6.14244147 6.65812909,5.86363636 6.81587342,5.86363636 C7.3688115,5.99025659 7.77867187,6.0535667 8.04545455,6.0535667 C8.32451742,6.0535667 8.73342538,5.99025659 9.27217841,5.86363636 C9.42992279,5.86363636 9.54259729,6.17032195 9.54259729,6.50488809 C9.56513218,6.86733471 9.45245768,7.14613976 9.27217841,7.14613976 Z M17.0454545,7.36363636 C16.767589,7.36363636 16.3578146,7.31588418 15.8161312,7.22037982 C15.6582365,7.22037982 15.5454545,6.89594117 15.5454545,6.54200812 C15.5454545,6.15858061 15.6582365,5.86363636 15.8161312,5.86363636 C16.3578146,5.99758623 16.767589,6.06456117 17.0454545,6.06456117 C17.3139549,6.06456117 17.7237293,5.99758623 18.2747778,5.86363636 C18.4326726,5.86363636 18.5454545,6.18807501 18.5454545,6.54200812 C18.5454545,6.92543563 18.4101162,7.22037982 18.2747778,7.22037982 C17.7237293,7.31588418 17.3139549,7.36363636 17.0454545,7.36363636 Z" id="形状" fill="#000000" fill-rule="nonzero"></path>
                            <path d="M15.5868017,11.2937392 C14.3402469,11.6734401 13.3954151,11.8632906 12.7523066,11.8632906 C12.1356395,11.8632906 11.1908078,11.6734401 9.91781149,11.2937392 C9.84188752,11.2937392 9.76596355,10.9900433 9.76596355,10.7116554 C9.76596355,10.4079596 9.84188752,10.1295716 9.91781149,10.1295716 C11.1850298,10.5176275 12.1298615,10.7116554 12.7523066,10.7116554 C13.3896371,10.7116554 14.3344688,10.5176275 15.5868017,10.1295716 C15.6627257,10.1295716 15.7386496,10.4332675 15.7386496,10.7116554 C15.7386496,11.0153513 15.6627257,11.2937392 15.5868017,11.2937392 Z" id="路径" fill="#FFB57F" fill-rule="nonzero"></path>
                        </g>
                        <g id="帽子" fill-rule="nonzero">
                            <path d="M25.7121012,13.616818 L24.6533058,3.04762168 C24.6273476,2.76215319 24.525174,2.48911106 24.3576446,2.25751594 C24.2759287,2.14460994 24.1799604,2.04293264 24.0721674,1.95505618 C23.2916219,1.15368688 19.4657665,0.545454545 14.8636364,0.545454545 C10.2615062,0.545454545 6.43203719,1.15434945 5.65346281,1.95605002 C5.32178174,2.22583982 5.11269992,2.61967834 5.07396694,3.04762168 L4.01418595,13.6154929 L3.92515909,13.6154929 C1.73463843,14.0816056 0.409090909,14.6871877 0.409090909,15.3497502 C0.409090909,16.8133506 6.88078512,18 14.8636364,18 C22.8464876,18 29.3181818,16.8133506 29.3181818,15.3497502 C29.3181818,14.6871877 27.9926343,14.0816056 25.8011281,13.616818 L25.7121012,13.616818 Z" id="路径" fill="#FA3314"></path>
                            <path d="M14.999349,11.4997015 C10.8685123,11.4997015 7.146202,11.1674916 4.53195855,10.6363636 L4.22727273,13.7853877 C6.85356038,14.3634399 10.6696201,14.7272727 15,14.7272727 C19.3303799,14.7272727 23.1464396,14.3624198 25.7727273,13.7853877 L25.4680414,10.6367037 C22.8524959,11.1674916 19.1301856,11.4997015 14.999349,11.4997015 Z" id="路径" fill="#FF6E6E"></path>
                            <path d="M25.4529257,10.6363636 C24.8037558,10.7557661 24.0879606,10.8648138 23.3181818,10.9599475 L23.6222667,13.8181638 L23.7247672,13.8181638 C23.8744179,13.8479336 24.0205381,13.8782426 24.1631277,13.9090909 C24.7374722,13.8239884 25.2755998,13.7317669 25.7727273,13.6327503 L25.4529257,10.6363636 Z" id="路径" fill="#E72C2C"></path>
                            <path d="M3.97053971,13.4966775 L4.06102299,13.4966775 L5.13285076,3.06027965 C5.14337731,2.94716673 5.16635438,2.83551094 5.20137854,2.72727273 C5.77255429,2.96214402 6.54498882,3.13191867 7.22727273,3.24771872 L6.13082819,13.9219319 L6.03103044,13.9219319 C3.58532042,14.4276576 2.10565254,15.0868019 2.10565254,15.8077717 C2.10565254,16.0956363 2.34184054,16.3736872 2.78095061,16.6363636 C1.28132319,16.2255024 0.409090909,15.7348243 0.409090909,15.2075088 C0.409090909,14.5532712 1.75170321,13.9566065 3.97053971,13.4966775 Z" id="路径" fill="#000000" opacity="0.0565243676"></path>
                            <path d="M4.27494117,10.6363636 C4.92393037,10.7557661 5.63918478,10.8648138 6.40909091,10.9599475 L6.10474913,13.8181638 L6.00227716,13.8181638 C5.85266807,13.8479336 5.70658857,13.8782426 5.56403866,13.9090909 C4.98985401,13.8239884 4.45153455,13.7317669 3.95454545,13.6327503 L4.27494117,10.6363636 Z" id="路径" fill="#CE1B1B"></path>
                        </g>
                    </g>
                </g>
            </g>
        </g>
    </g>
</svg>