<?xml version="1.0" encoding="UTF-8"?>
<svg width="22px" height="24px" viewBox="0 0 22 24" version="1.1" xmlns="http://www.w3.org/2000/svg" xmlns:xlink="http://www.w3.org/1999/xlink">
    <!-- Generator: Sketch 61 (89581) - https://sketch.com -->
    <title>定位</title>
    <desc>Created with Sketch.</desc>
    <defs>
        <linearGradient x1="50%" y1="0%" x2="50%" y2="100%" id="linearGradient-1">
            <stop stop-color="#FFD7A9" offset="0%"></stop>
            <stop stop-color="#FF9B00" offset="100%"></stop>
        </linearGradient>
        <path d="M9.57879808,10.8346154 C11.7849519,11.1923077 13.3034135,11.94 13.3034135,12.8053846 C13.3034135,14.0169231 10.3264904,15 6.65264423,15 C2.97879808,15 0.001875,14.0169231 0.001875,12.8053846 C0.001875,11.94 1.52033654,11.1923077 3.72649038,10.8346154 C5.00725962,12.1176923 6.41725962,13.53 6.41725962,13.53 C6.54649038,13.6592308 6.75879808,13.6592308 6.88802885,13.53 C6.88802885,13.53 8.29802885,12.1176923 9.57879808,10.8346154 Z M6.65264423,-1.99840144e-13 C9.33418269,-1.99840144e-13 11.5103365,2.17384615 11.5080307,4.85769231 C11.5080307,6.06461538 11.0695673,7.16769231 10.3403365,8.01692308 C10.3311058,8.03076923 6.82572115,11.5407692 6.82572115,11.5407692 C6.73110577,11.6353846 6.571875,11.6353846 6.47725962,11.5407692 C6.47725962,11.5407692 2.971875,8.03076923 2.96264423,8.01692308 C2.23572115,7.16769231 1.79495192,6.06461538 1.79495192,4.85769231 C1.79495192,2.17384615 3.96879808,-1.99840144e-13 6.65264423,-1.99840144e-13 Z M6.65264423,2.64 C5.49879808,2.64 4.56418269,3.57461538 4.56418269,4.72846154 C4.56418269,5.88230769 5.49879808,6.81692308 6.65264423,6.81692308 C7.80649038,6.81692308 8.74110577,5.88230769 8.74110577,4.72846154 C8.74110577,3.57461538 7.80649038,2.64 6.65264423,2.64 Z" id="path-2"></path>
        <filter x="-52.6%" y="-33.3%" width="205.3%" height="193.3%" filterUnits="objectBoundingBox" id="filter-3">
            <feOffset dx="0" dy="2" in="SourceAlpha" result="shadowOffsetOuter1"></feOffset>
            <feGaussianBlur stdDeviation="2" in="shadowOffsetOuter1" result="shadowBlurOuter1"></feGaussianBlur>
            <feColorMatrix values="0 0 0 0 0   0 0 0 0 0   0 0 0 0 0  0 0 0 0.119919143 0" type="matrix" in="shadowBlurOuter1"></feColorMatrix>
        </filter>
    </defs>
    <g id="页面-1" stroke="none" stroke-width="1" fill="none" fill-rule="evenodd">
        <g id="网格地图-摄像头列表" transform="translate(-413.000000, -82.000000)" fill-rule="nonzero">
            <g id="分组备份" transform="translate(400.000000, 72.000000)">
                <g id="编组-2">
                    <g id="定位" transform="translate(17.000000, 12.000000)">
                        <g id="地区-(2)" transform="translate(0.000000, 0.500000)">
                            <g id="形状结合">
                                <use fill="black" fill-opacity="1" filter="url(#filter-3)" xlink:href="#path-2"></use>
                                <use fill="url(#linearGradient-1)" xlink:href="#path-2"></use>
                            </g>
                        </g>
                    </g>
                </g>
            </g>
        </g>
    </g>
</svg>