<?xml version="1.0" encoding="UTF-8"?>
<svg width="24px" height="24px" viewBox="0 0 24 24" version="1.1" xmlns="http://www.w3.org/2000/svg" xmlns:xlink="http://www.w3.org/1999/xlink">
    <!-- Generator: Sketch 61 (89581) - https://sketch.com -->
    <title>-mockplus-</title>
    <desc>Created with Sketch.</desc>
    <g id="页面-1" stroke="none" stroke-width="1" fill="none" fill-rule="evenodd">
        <g id="网格地图-网格员-列表" transform="translate(-1368.000000, -323.000000)" fill="#D31D01" fill-rule="nonzero">
            <g id="编组-3备份" transform="translate(1056.000000, 120.000000)">
                <g id="表格-Table---带图标表格-Copy-3备份-2" transform="translate(12.000000, 192.000000)">
                    <g id="编组-3备份">
                        <g id="-mockplus-" transform="translate(300.000000, 11.000000)">
                            <g id="网格地图/轨迹" transform="translate(2.000000, 0.000000)">
                                <g id="轨迹-(1)" transform="translate(0.250000, 0.750000)">
                                    <path d="M17.0778542,21.3056884 C18.5178542,21.3056884 19.7125208,20.2016884 19.7125208,18.804355 C19.7125208,17.4070217 18.5178542,16.3030217 17.0778542,16.3030217 L2.64585417,16.3030217 C2.10452083,16.3030217 1.69385417,15.9216884 1.69385417,15.484355 C1.69385417,15.0496884 2.10452083,14.6656884 2.64585417,14.6656884 L5.6351875,14.6656884 C6.0991875,14.6656884 6.4751875,14.2896884 6.4751875,13.8256884 C6.46452083,13.3510217 6.08852083,12.972355 5.6351875,12.9830217 L2.64585417,12.9830217 C1.20585417,12.9830217 0.0111874997,14.0870217 0.0111874997,15.484355 C0.0111874997,16.8816884 1.20585417,17.9856884 2.64585417,17.9856884 L17.0751875,17.9856884 C17.6165208,17.9856884 18.0298542,18.3670217 18.0298542,18.804355 C18.0298542,19.2390217 17.6191875,19.6230217 17.0751875,19.6230217 L5.03785417,19.6230217 C4.58452083,19.612355 4.20852083,19.988355 4.19785417,20.4630217 C4.19785417,20.9270217 4.57385417,21.3056884 5.03785417,21.3056884 L17.0778542,21.3056884 L17.0778542,21.3056884 Z M10.6538542,0.00433565633 C7.60585417,-0.00364496016 5.13652083,2.46568837 5.12852083,5.51368837 C5.12852083,7.77502171 8.18452083,12.0070217 9.75785417,14.028355 C10.1978542,14.524355 10.9551875,14.5696884 11.4511875,14.132355 L11.5551875,14.028355 C13.1258542,12.0070217 16.1845208,7.78568837 16.1845208,5.51368837 C16.1738542,2.46568837 13.7018542,0.00168837281 10.6538542,0.00433565633 L10.6538542,0.00433565633 Z M10.6538542,8.62568837 C9.83252083,8.62568837 9.04585417,8.30035504 8.46452083,7.71902171 C7.8831875,7.13768837 7.55785417,6.35102171 7.55785417,5.52968837 C7.55785417,4.70835504 7.8831875,3.92168837 8.46452083,3.34302171 C9.04585417,2.76435504 9.83252083,2.43902171 10.6538542,2.44167211 C12.3391875,2.47102171 13.6911875,3.84702171 13.6911875,5.53502171 C13.6911875,7.22035504 12.3391875,8.59635504 10.6538542,8.62568837 Z" id="形状"></path>
                                </g>
                            </g>
                        </g>
                    </g>
                </g>
            </g>
        </g>
    </g>
</svg>